<svg width="20" height="22" viewBox="0 0 20 22" fill="none" xmlns="http://www.w3.org/2000/svg">
<path fill-rule="evenodd" clip-rule="evenodd" d="M6.24999 4.776V4.5C6.24999 3.50544 6.64508 2.55161 7.34834 1.84835C8.0516 1.14509 9.00543 0.75 9.99999 0.75C10.9946 0.75 11.9484 1.14509 12.6516 1.84835C13.3549 2.55161 13.75 3.50544 13.75 4.5V4.776C14.408 4.796 14.995 4.833 15.515 4.898C16.716 5.05 17.689 5.368 18.44 6.102C18.69 6.347 18.913 6.618 19.104 6.912C19.676 7.792 19.798 8.808 19.711 10.016C19.625 11.198 19.329 12.682 18.952 14.565L18.932 14.66C18.672 15.967 18.464 17.007 18.206 17.826C17.941 18.668 17.602 19.35 17.036 19.902C16.841 20.092 16.631 20.264 16.406 20.418C15.754 20.865 15.019 21.063 14.141 21.158C13.288 21.25 12.228 21.25 10.895 21.25H9.10499C7.77199 21.25 6.71199 21.25 5.85899 21.158C4.98099 21.063 4.24599 20.865 3.59399 20.418C3.3696 20.2644 3.15882 20.0917 2.96399 19.902C2.39799 19.35 2.05899 18.668 1.79399 17.826C1.53699 17.007 1.32899 15.967 1.06699 14.66L1.04799 14.565C0.671993 12.682 0.374993 11.198 0.289993 10.016C0.201993 8.808 0.323993 7.792 0.895993 6.912C1.08679 6.61835 1.30948 6.3467 1.55999 6.102C2.31199 5.368 3.28399 5.05 4.48499 4.898C5.00499 4.833 5.59199 4.796 6.24999 4.776ZM7.74999 4.5C7.74999 3.90326 7.98705 3.33097 8.409 2.90901C8.83096 2.48705 9.40326 2.25 9.99999 2.25C10.5967 2.25 11.169 2.48705 11.591 2.90901C12.0129 3.33097 12.25 3.90326 12.25 4.5V4.752C11.826 4.75 11.378 4.75 10.905 4.75H9.09499C8.62199 4.75 8.17499 4.75 7.74999 4.752V4.5ZM2.60799 7.175C3.02299 6.77 3.61599 6.52 4.67299 6.386C5.74299 6.251 7.16299 6.25 9.14899 6.25H10.852C12.838 6.25 14.256 6.251 15.327 6.386C16.384 6.52 16.977 6.77 17.392 7.175C17.563 7.342 17.715 7.528 17.846 7.729C18.162 8.215 18.291 8.846 18.215 9.909C18.137 10.985 17.86 12.376 17.471 14.324C17.199 15.683 17.006 16.644 16.775 17.375C16.55 18.092 16.31 18.515 15.989 18.828C15.856 18.9577 15.7121 19.0758 15.559 19.181C15.189 19.434 14.727 19.586 13.98 19.667C13.217 19.749 12.237 19.75 10.851 19.75H9.14999C7.76399 19.75 6.78399 19.749 6.01999 19.667C5.27399 19.587 4.81299 19.434 4.44299 19.181C4.28949 19.0755 4.1453 18.9571 4.01199 18.827C3.69099 18.514 3.45199 18.092 3.22599 17.375C2.99599 16.643 2.80199 15.683 2.53099 14.324C2.14099 12.376 1.86399 10.984 1.78699 9.908C1.70999 8.846 1.83899 8.215 2.15499 7.729C2.28545 7.52817 2.43771 7.34238 2.60899 7.175H2.60799Z" fill="#292C2B"/>
</svg>
