<svg width="23" height="23" viewBox="0 0 23 23" fill="none" xmlns="http://www.w3.org/2000/svg">
<path fill-rule="evenodd" clip-rule="evenodd" d="M11.5 0.75C10.895 0.75 10.338 0.9 9.729 1.152C9.14 1.396 8.456 1.755 7.605 2.202L5.537 3.287C4.492 3.835 3.657 4.274 3.01 4.705C2.342 5.152 1.826 5.622 1.451 6.259C1.077 6.894 0.909 7.582 0.828 8.401C0.75 9.196 0.75 10.173 0.75 11.403V11.597C0.75 12.827 0.75 13.804 0.828 14.599C0.909 15.419 1.078 16.106 1.451 16.741C1.826 17.378 2.341 17.848 3.011 18.295C3.656 18.726 4.492 19.165 5.537 19.713L7.605 20.798C8.456 21.245 9.14 21.604 9.729 21.848C10.339 22.1 10.895 22.25 11.5 22.25C12.105 22.25 12.662 22.1 13.271 21.848C13.86 21.604 14.544 21.245 15.395 20.798L17.463 19.714C18.508 19.165 19.343 18.726 19.989 18.295C20.659 17.848 21.174 17.378 21.549 16.741C21.923 16.106 22.091 15.418 22.172 14.599C22.25 13.804 22.25 12.827 22.25 11.597V11.403C22.25 10.173 22.25 9.196 22.172 8.401C22.091 7.581 21.922 6.894 21.549 6.259C21.174 5.622 20.659 5.152 19.989 4.705C19.344 4.274 18.508 3.835 17.463 3.287L15.395 2.202C14.544 1.755 13.86 1.396 13.271 1.152C12.661 0.9 12.105 0.75 11.5 0.75ZM8.27 3.546C9.16 3.079 9.784 2.753 10.302 2.539C10.806 2.33 11.161 2.25 11.5 2.25C11.84 2.25 12.194 2.33 12.698 2.539C13.216 2.753 13.839 3.079 14.729 3.546L16.729 4.596C17.819 5.167 18.584 5.57 19.157 5.952C19.439 6.141 19.66 6.316 19.84 6.492L16.509 8.157L8.009 3.683L8.27 3.546ZM6.445 4.504L6.271 4.596C5.181 5.167 4.416 5.57 3.844 5.952C3.59993 6.11022 3.37126 6.29102 3.161 6.492L11.5 10.662L14.857 8.982L6.651 4.664C6.5735 4.62313 6.50378 4.56897 6.445 4.504ZM2.438 7.807C2.388 8.021 2.349 8.264 2.321 8.547C2.251 9.261 2.25 10.164 2.25 11.441V11.558C2.25 12.836 2.25 13.739 2.321 14.452C2.39 15.149 2.521 15.6 2.744 15.98C2.966 16.357 3.287 16.676 3.844 17.048C4.416 17.43 5.181 17.833 6.271 18.404L8.271 19.454C9.161 19.921 9.784 20.247 10.302 20.461C10.466 20.529 10.613 20.583 10.75 20.626V11.963L2.438 7.807ZM12.25 20.625C12.387 20.583 12.534 20.529 12.698 20.461C13.216 20.247 13.839 19.921 14.729 19.454L16.729 18.404C17.819 17.832 18.584 17.43 19.157 17.048C19.713 16.676 20.034 16.357 20.257 15.98C20.48 15.6 20.61 15.15 20.679 14.452C20.749 13.739 20.75 12.836 20.75 11.559V11.442C20.75 10.164 20.75 9.261 20.679 8.548C20.6565 8.29901 20.6174 8.05179 20.562 7.808L17.25 9.463V12.5C17.25 12.6989 17.171 12.8897 17.0303 13.0303C16.8897 13.171 16.6989 13.25 16.5 13.25C16.3011 13.25 16.1103 13.171 15.9697 13.0303C15.829 12.8897 15.75 12.6989 15.75 12.5V10.213L12.25 11.963V20.625Z" fill="#292C2B"/>
</svg>
