<svg width="23" height="21" viewBox="0 0 23 21" fill="none" xmlns="http://www.w3.org/2000/svg">
<path d="M2.167 2.22825C3.1885 1.0455 4.32775 0.75 4.75 0.75H18.25C19.7222 0.75 20.854 1.9245 21.5725 3.3615C22.3135 4.84275 22.75 6.83775 22.75 9C22.75 11.1622 22.3135 13.1572 21.5725 14.6385C20.854 16.0755 19.723 17.25 18.25 17.25H15.25V19.5C15.25 19.8978 15.092 20.2794 14.8107 20.5607C14.5294 20.842 14.1478 21 13.75 21H1.75C1.35218 21 0.970644 20.842 0.68934 20.5607C0.408035 20.2794 0.25 19.8978 0.25 19.5V9C0.25 5.502 1.126 3.4335 2.167 2.22825ZM16.2692 4.032C15.6527 5.265 15.25 7.02 15.25 9C15.25 10.7325 15.5583 12.2925 16.0487 13.482C16.1185 13.6515 16.192 13.8135 16.2692 13.968C16.9075 15.2453 17.6515 15.75 18.25 15.75C18.8485 15.75 19.5925 15.2453 20.2308 13.968C20.8472 12.735 21.25 10.98 21.25 9C21.25 7.02 20.8472 5.265 20.2308 4.032C19.5925 2.75475 18.8485 2.25 18.25 2.25C17.6515 2.25 16.9075 2.75475 16.2692 4.032ZM4.75 2.25C4.75525 2.25 4.75075 2.25075 4.73875 2.25375C4.636 2.27625 3.97825 2.42625 3.30175 3.20925C2.5615 4.0665 1.75 5.748 1.75 9V19.5H13.75V9C13.75 6.83775 14.1865 4.84275 14.9275 3.3615C15.1262 2.964 15.3558 2.5875 15.616 2.25H4.75Z" fill="#292C2B"/>
</svg>
