<svg width="22" height="23" viewBox="0 0 22 23" fill="none" xmlns="http://www.w3.org/2000/svg">
<path fill-rule="evenodd" clip-rule="evenodd" d="M11 0.75C10.275 0.75 9.61299 0.95 8.88999 1.287C8.18799 1.614 7.37799 2.097 6.36199 2.702L4.90599 3.569C3.78699 4.236 2.89599 4.767 2.21999 5.275C1.52299 5.8 0.999994 6.34 0.659994 7.051C0.317994 7.762 0.225994 8.507 0.254994 9.376C0.283994 10.217 0.430994 11.24 0.614994 12.522L0.907994 14.554C1.14499 16.204 1.33399 17.513 1.61499 18.532C1.90499 19.582 2.31699 20.417 3.05999 21.056C3.80199 21.696 4.68999 21.981 5.77599 22.118C6.83199 22.25 8.16299 22.25 9.84199 22.25H12.158C13.838 22.25 15.168 22.25 16.224 22.118C17.31 21.981 18.198 21.696 18.94 21.057C19.683 20.417 20.095 19.583 20.385 18.532C20.666 17.512 20.855 16.204 21.092 14.554L21.384 12.522C21.569 11.24 21.716 10.217 21.744 9.376C21.774 8.506 21.682 7.762 21.341 7.051C21 6.34 20.477 5.8 19.78 5.275C19.105 4.767 18.213 4.236 17.094 3.569L15.638 2.702C14.622 2.097 13.812 1.614 13.111 1.287C12.387 0.949 11.725 0.75 11 0.75ZM7.09599 4.011C8.15299 3.381 8.89899 2.938 9.52399 2.646C10.133 2.362 10.571 2.25 11 2.25C11.43 2.25 11.867 2.362 12.476 2.646C13.101 2.938 13.846 3.381 14.904 4.011L16.289 4.836C17.454 5.53 18.275 6.02 18.879 6.474C19.466 6.917 19.789 7.283 19.989 7.699C20.188 8.115 20.271 8.593 20.246 9.325C20.22 10.075 20.086 11.016 19.894 12.351L19.614 14.288C19.368 16.002 19.192 17.216 18.939 18.133C18.692 19.029 18.394 19.548 17.962 19.92C17.529 20.293 16.968 20.513 16.037 20.63C15.086 20.749 13.849 20.75 12.107 20.75H9.89399C8.15099 20.75 6.91399 20.749 5.96299 20.63C5.03299 20.513 4.47099 20.293 4.03799 19.92C3.60599 19.548 3.30799 19.029 3.06099 18.133C2.80799 17.216 2.63099 16.002 2.38499 14.288L2.10599 12.351C1.91399 11.016 1.77999 10.074 1.75399 9.325C1.72899 8.593 1.81199 8.115 2.01199 7.699C2.21199 7.283 2.53299 6.917 3.12199 6.474C3.72499 6.02 4.54599 5.53 5.71099 4.836L7.09599 4.011Z" fill="#292C2B"/>
</svg>
