<svg width="22" height="20" viewBox="0 0 22 20" fill="none" xmlns="http://www.w3.org/2000/svg">
<path d="M20.9731 18.1875C19.6878 15.9316 17.6807 14.1738 15.275 13.1972C16.4713 12.2999 17.355 11.049 17.8009 9.62164C18.2468 8.19424 18.2322 6.66274 17.7593 5.24407C17.2865 3.8254 16.3792 2.59148 15.166 1.71709C13.9529 0.842709 12.4954 0.372192 11 0.372192C9.50457 0.372192 8.04706 0.842709 6.83392 1.71709C5.62078 2.59148 4.7135 3.8254 4.24061 5.24407C3.76772 6.66274 3.75319 8.19424 4.19907 9.62164C4.64496 11.049 5.52865 12.2999 6.72498 13.1972C4.31928 14.1738 2.31221 15.9316 1.02686 18.1875C0.94721 18.3156 0.894127 18.4583 0.870762 18.6073C0.847396 18.7563 0.854226 18.9085 0.890844 19.0548C0.927462 19.2011 0.993122 19.3385 1.08392 19.4589C1.17472 19.5794 1.2888 19.6803 1.41938 19.7557C1.54996 19.8312 1.69438 19.8796 1.84405 19.8981C1.99373 19.9166 2.14559 19.9049 2.29062 19.8635C2.43566 19.8222 2.57089 19.7521 2.6883 19.6574C2.8057 19.5628 2.90288 19.4455 2.97404 19.3125C4.67279 16.3763 7.67279 14.625 11 14.625C14.3272 14.625 17.3272 16.3772 19.0259 19.3125C19.1802 19.5605 19.4248 19.7388 19.7081 19.8097C19.9914 19.8806 20.2912 19.8386 20.544 19.6925C20.7969 19.5464 20.9831 19.3077 21.0631 19.0268C21.1432 18.746 21.1109 18.445 20.9731 18.1875ZM6.12498 7.5C6.12498 6.53582 6.41089 5.59329 6.94657 4.7916C7.48224 3.98991 8.24361 3.36507 9.1344 2.99609C10.0252 2.62712 11.0054 2.53057 11.951 2.71868C12.8967 2.90678 13.7653 3.37108 14.4471 4.05286C15.1289 4.73464 15.5932 5.60328 15.7813 6.54894C15.9694 7.4946 15.8729 8.4748 15.5039 9.36559C15.1349 10.2564 14.5101 11.0177 13.7084 11.5534C12.9067 12.0891 11.9642 12.375 11 12.375C9.70751 12.3735 8.4684 11.8594 7.55448 10.9455C6.64056 10.0316 6.12647 8.79248 6.12498 7.5Z" fill="#292C2B"/>
</svg>
